<svg xmlns:xlink="http://www.w3.org/1999/xlink" width="220" xmlns="http://www.w3.org/2000/svg" height="220" id="screenshot-627cfb1e-c31d-805d-8003-af040dd13c4f" viewBox="0 0 220 220" style="-webkit-print-color-adjust: exact;" fill="none" version="1.1"><g id="shape-627cfb1e-c31d-805d-8003-af040dd13c4f" rx="0" ry="0"><g id="shape-627cfb1e-c31d-805d-8003-af04011d68b8"><g class="fills" id="fills-627cfb1e-c31d-805d-8003-af04011d68b8"><ellipse rx="110" ry="110" cx="110" cy="110" transform="matrix(1.000000, 0.000000, 0.000000, 1.000000, 0.000000, 0.000000)" style="fill: rgb(255, 255, 255); fill-opacity: 1;"/></g></g><g id="shape-194cb589-396c-806b-8003-91f89087bc4b" rx="0" ry="0" style="fill: rgb(0, 0, 0);"><g id="shape-194cb589-396c-806b-8003-91f890886595"><g class="fills" id="fills-194cb589-396c-806b-8003-91f890886595"><path rx="0" ry="0" d="M145.581,155.367L145.581,155.367ZL134.714,133.031C134.231,131.773,132.790,130.906,131.156,130.906L87.186,130.906C85.543,130.906,84.083,131.789,83.619,133.063L73.477,155.109L73.448,155.164L73.429,155.227C73.303,155.609,73.264,156.000,73.332,156.383C73.322,156.508,73.313,156.633,73.313,156.758L73.313,185.344C73.318,187.965,75.947,190.089,79.191,190.094L139.828,190.094C143.067,190.094,145.707,187.961,145.716,185.344L145.716,156.758C145.716,156.656,145.716,156.555,145.707,156.469C145.745,156.086,145.707,155.719,145.581,155.367ZZM116.983,152.008L116.954,153.234C116.877,156.742,113.880,159.102,109.500,159.102C107.363,159.102,105.526,158.547,104.202,157.492C102.877,156.438,102.152,154.969,102.114,153.234L102.085,152.008L82.188,152.008L89.874,136.906L128.469,136.906L136.367,152.008L116.983,152.008ZZM80.728,158.008L95.936,158.008C98.285,162.469,103.283,165.102,109.510,165.102C112.768,165.102,115.794,164.367,118.240,162.977C120.386,161.758,122.059,160.055,123.142,158.008L138.272,158.008L138.272,184.094L80.728,184.094L80.728,158.008ZZ" style="fill: rgb(108, 108, 108); fill-opacity: 1;"/></g></g></g><g id="shape-194cb589-396c-806b-8003-919082d4586c" height="500" width="500" rx="0" ry="0" style="fill: rgb(0, 0, 0);"><g id="shape-194cb589-396c-806b-8003-919082d4586e"><g class="fills" id="fills-194cb589-396c-806b-8003-919082d4586e"><path rx="0" ry="0" d="M124.188,123.558L135.087,118.241L129.824,116.797L145.764,90.252L143.503,88.894L127.648,115.296L124.048,110.894Z" style="fill: rgb(108, 108, 108); fill-opacity: 1;"/></g></g></g><g id="shape-194cb589-396c-806b-8003-91f784cfa916" rx="0" ry="0"><g id="shape-194cb589-396c-806b-8003-91f6ddbbc7aa" height="500" width="500" rx="0" ry="0" style="fill: rgb(0, 0, 0);"><g id="shape-194cb589-396c-806b-8003-91f6ddbbc7ac"><g class="fills" id="fills-194cb589-396c-806b-8003-91f6ddbbc7ac"><path rx="0" ry="0" d="M94.430,122.782L95.102,110.673L91.275,114.565L75.870,87.706L73.582,89.018L88.904,115.733L83.305,116.730Z" style="fill: rgb(108, 108, 108); fill-opacity: 1;"/></g></g></g><g id="shape-194cb589-396c-806b-8003-91f6a140ec7e"><g class="fills" id="fills-194cb589-396c-806b-8003-91f6a140ec7e"><rect rx="0" ry="0" x="67.23597536699617" y="78.98597536699572" transform="matrix(0.484810, 0.874620, -0.874620, 0.484810, 118.315024, -21.887102)" width="20.999999999999886" height="21.000000000000455" style="fill: rgb(255, 255, 255); fill-opacity: 1;"/></g></g></g><g id="shape-194cb589-396c-806b-8003-91903883e542" class="icon" rx="0" ry="0" style="fill: rgb(0, 0, 0);"><g id="shape-194cb589-396c-806b-8003-91903883e544"><g class="fills" id="fills-194cb589-396c-806b-8003-91903883e544"><path rx="0" ry="0" d="M175.000,37.500L123.000,37.500C121.894,37.500,121.000,38.394,121.000,39.500L121.000,79.500C121.000,80.606,121.894,81.500,123.000,81.500L175.000,81.500C176.106,81.500,177.000,80.606,177.000,79.500L177.000,39.500C177.000,38.394,176.106,37.500,175.000,37.500ZZM172.500,77.000L125.500,77.000L125.500,74.506L134.156,64.237L143.537,75.363L158.131,58.063L172.500,75.100L172.500,77.000ZZM172.500,68.888L158.512,52.300C158.312,52.063,157.950,52.063,157.750,52.300L143.537,69.150L134.537,58.481C134.337,58.244,133.975,58.244,133.775,58.481L125.500,68.294L125.500,42.000L172.500,42.000L172.500,68.888ZZM136.000,56.000C139.038,56.000,141.500,53.538,141.500,50.500C141.500,47.462,139.038,45.000,136.000,45.000C132.962,45.000,130.500,47.462,130.500,50.500C130.500,53.538,132.962,56.000,136.000,56.000ZZM136.000,48.750C136.969,48.750,137.750,49.531,137.750,50.500C137.750,51.469,136.969,52.250,136.000,52.250C135.031,52.250,134.250,51.469,134.250,50.500C134.250,49.531,135.031,48.750,136.000,48.750ZZ" style="fill: rgb(108, 108, 108); fill-opacity: 1;"/></g></g></g><g id="shape-194cb589-396c-806b-8003-91f6960eb963" class="icon" rx="0" ry="0" style="fill: rgb(0, 0, 0);"><g id="shape-194cb589-396c-806b-8003-91f6960eb965"><g class="fills" id="fills-194cb589-396c-806b-8003-91f6960eb965"><path rx="0" ry="0" d="M96.000,49.500L44.000,49.500C42.894,49.500,42.000,50.394,42.000,51.500L42.000,91.500C42.000,92.606,42.894,93.500,44.000,93.500L96.000,93.500C97.106,93.500,98.000,92.606,98.000,91.500L98.000,51.500C98.000,50.394,97.106,49.500,96.000,49.500ZZM93.500,89.000L46.500,89.000L46.500,86.506L55.156,76.237L64.537,87.363L79.131,70.063L93.500,87.100L93.500,89.000ZZM93.500,80.888L79.512,64.300C79.312,64.063,78.950,64.063,78.750,64.300L64.537,81.150L55.537,70.481C55.337,70.244,54.975,70.244,54.775,70.481L46.500,80.294L46.500,54.000L93.500,54.000L93.500,80.888ZZM57.000,68.000C60.038,68.000,62.500,65.538,62.500,62.500C62.500,59.462,60.038,57.000,57.000,57.000C53.962,57.000,51.500,59.462,51.500,62.500C51.500,65.538,53.962,68.000,57.000,68.000ZZM57.000,60.750C57.969,60.750,58.750,61.531,58.750,62.500C58.750,63.469,57.969,64.250,57.000,64.250C56.031,64.250,55.250,63.469,55.250,62.500C55.250,61.531,56.031,60.750,57.000,60.750ZZ" style="fill: rgb(108, 108, 108); fill-opacity: 1;"/></g></g></g></g></svg>