<svg xmlns:xlink="http://www.w3.org/1999/xlink" width="220" xmlns="http://www.w3.org/2000/svg" height="220" id="screenshot-627cfb1e-c31d-805d-8003-af043dc005dc" viewBox="0 0 220 220" style="-webkit-print-color-adjust: exact;" fill="none" version="1.1"><g id="shape-627cfb1e-c31d-805d-8003-af043dc005dc" rx="0" ry="0"><g id="shape-627cfb1e-c31d-805d-8003-af04349a1c85"><g class="fills" id="fills-627cfb1e-c31d-805d-8003-af04349a1c85"><ellipse rx="110" ry="110" cx="110" cy="110" transform="matrix(1.000000, 0.000000, 0.000000, 1.000000, 0.000000, 0.000000)" style="fill: rgb(255, 255, 255); fill-opacity: 1;"/></g></g><g id="shape-239fa005-02ff-80a7-8003-9331a98814f3" rx="0" ry="0" style="fill: rgb(0, 0, 0);"><g id="shape-239fa005-02ff-80a7-8003-9331a98814f5"><g class="fills" id="fills-239fa005-02ff-80a7-8003-9331a98814f5"><path rx="0" ry="0" d="M155.325,40.164L155.325,40.164ZL153.000,25.000C152.688,24.182,150.056,24.500,149.000,24.500L149.000,28.000L139.389,28.000L115.500,28.000L115.500,24.500C114.438,24.500,111.800,24.672,111.500,25.500L108.713,39.996L108.694,40.032L108.681,40.072C108.600,40.321,108.575,40.575,108.619,40.824C108.612,40.905,108.606,40.986,108.606,41.068L108.606,59.648C108.610,61.352,110.309,62.733,112.406,62.736L151.606,62.736C153.700,62.736,155.406,61.350,155.413,59.648L155.413,41.068C155.413,41.002,155.413,40.936,155.406,40.880C155.431,40.631,155.406,40.392,155.325,40.164ZL155.325,40.164ZM136.838,37.980L136.819,38.777C136.769,41.057,134.831,42.591,132.000,42.591C130.619,42.591,129.431,42.230,128.575,41.545C127.719,40.859,127.250,39.905,127.225,38.777L127.206,37.980L114.344,37.980L115.500,28.000L125.111,28.000L149.000,28.000L150.000,38.000L136.838,37.980ZL136.838,37.980ZM113.400,41.880L123.231,41.880C124.750,44.780,127.981,46.491,132.006,46.491C134.112,46.491,136.069,46.014,137.650,45.110C139.038,44.318,140.119,43.211,140.819,41.880L150.600,41.880L150.600,58.836L113.400,58.836L113.400,41.880ZL113.400,41.880Z" style="fill: rgb(108, 108, 108); fill-opacity: 1;"/></g></g></g><g id="shape-239fa005-02ff-80a7-8003-9331cd712c54" height="500" width="500" rx="0" ry="0" style="fill: rgb(0, 0, 0);"><g id="shape-239fa005-02ff-80a7-8003-9331cd712c56"><g class="fills" id="fills-239fa005-02ff-80a7-8003-9331cd712c56"><path rx="0" ry="0" d="M125.218,89.581L130.972,84.728L127.585,84.657L133.152,66.263L131.585,65.788L126.047,84.084L123.213,81.980Z" style="fill: rgb(108, 108, 108); fill-opacity: 1;"/></g></g></g><g id="shape-194cb589-396c-806b-8003-92076c4672c6" rx="0" ry="0"><g id="shape-194cb589-396c-806b-8003-92076c4672c7" rx="0" ry="0"><g id="shape-194cb589-396c-806b-8003-92076c4672c8"><g class="fills" id="fills-194cb589-396c-806b-8003-92076c4672c8"><path rx="0" ry="0" d="M81.000,175.587C71.772,167.676,66.000,156.116,66.000,142.396C66.000,116.137,82.220,97.792,96.966,93.332C105.931,90.620,122.034,88.872,135.305,96.305C150.337,104.726,153.000,131.521,153.000,148.343C153.000,174.327,139.516,186.739,114.000,186.996L114.000,194.500L81.000,194.500L81.000,175.587Z" style="fill: rgb(177, 178, 181); fill-opacity: 1;"/></g></g><g id="shape-194cb589-396c-806b-8003-92076c4672cb"><g class="fills" id="fills-194cb589-396c-806b-8003-92076c4672cb"><path rx="0" ry="0" d="M111.000,164.500C111.000,164.500,122.969,159.388,128.250,161.500C132.000,163.000,136.500,163.750,141.750,161.500C143.328,160.824,145.500,166.750,145.500,166.750"/></g><g id="strokes-194cb589-396c-806b-8003-92076c4672cb" class="strokes"><g class="stroke-shape"><path rx="0" ry="0" d="M111.000,164.500C111.000,164.500,122.969,159.388,128.250,161.500C132.000,163.000,136.500,163.750,141.750,161.500C143.328,160.824,145.500,166.750,145.500,166.750" style="fill: none; stroke-width: 2; stroke: rgb(0, 0, 0); stroke-opacity: 1; stroke-linecap: round;"/></g></g></g><g id="shape-194cb589-396c-806b-8003-92076c4672cc"><g class="fills" id="fills-194cb589-396c-806b-8003-92076c4672cc"><path rx="0" ry="0" d="M144.000,139.000L132.000,131.500"/></g><g id="strokes-194cb589-396c-806b-8003-92076c4672cc" class="strokes"><g class="stroke-shape"><path rx="0" ry="0" d="M144.000,139.000L132.000,131.500" style="fill: none; stroke-width: 2; stroke: rgb(0, 0, 0); stroke-opacity: 1;"/></g></g></g><g id="shape-194cb589-396c-806b-8003-92076c4672cd"><g class="fills" id="fills-194cb589-396c-806b-8003-92076c4672cd"><path rx="0" ry="0" d="M120.037,98.116C114.037,94.366,97.254,101.012,92.287,104.116C86.287,107.866,73.537,126.616,71.287,133.366C69.260,139.445,71.287,148.366,75.787,152.866C79.929,157.008,86.287,155.866,89.287,152.866C93.429,148.724,93.787,140.116,96.037,134.866C97.759,130.847,110.474,116.730,116.287,114.616C124.537,111.616,125.900,101.781,120.037,98.116Z" style="fill: rgb(108, 108, 108); fill-opacity: 1;"/></g><g id="strokes-194cb589-396c-806b-8003-92076c4672cd" class="strokes"><g class="stroke-shape"><path rx="0" ry="0" d="M120.037,98.116C114.037,94.366,97.254,101.012,92.287,104.116C86.287,107.866,73.537,126.616,71.287,133.366C69.260,139.445,71.287,148.366,75.787,152.866C79.929,157.008,86.287,155.866,89.287,152.866C93.429,148.724,93.787,140.116,96.037,134.866C97.759,130.847,110.474,116.730,116.287,114.616C124.537,111.616,125.900,101.781,120.037,98.116Z" style="fill: none; stroke-width: 2; stroke: rgb(108, 108, 108); stroke-opacity: 1;"/></g></g></g><g id="shape-194cb589-396c-806b-8003-92076c4672ce"><g class="fills" id="fills-194cb589-396c-806b-8003-92076c4672ce"><path rx="0" ry="0" d="M58.589,103.552C61.553,102.670,67.189,106.307,67.189,106.307C67.189,106.307,64.281,109.770,62.143,111.035C60.005,112.299,57.243,111.590,55.979,109.452C54.715,107.315,56.208,104.260,58.589,103.552Z" style="fill: rgb(90, 162, 196); fill-opacity: 1;"/></g></g><g id="shape-194cb589-396c-806b-8003-92076c4672cf"><g class="fills" id="fills-194cb589-396c-806b-8003-92076c4672cf"><path rx="0" ry="0" d="M75.711,91.279C76.338,94.307,72.236,99.614,72.236,99.614C72.236,99.614,69.033,96.423,67.954,94.185C66.876,91.948,67.816,89.256,70.054,88.178C72.291,87.099,75.208,88.847,75.711,91.279Z" style="fill: rgb(90, 162, 196); fill-opacity: 1;"/></g></g><g id="shape-194cb589-396c-806b-8003-92076c4672d0"><g class="fills" id="fills-194cb589-396c-806b-8003-92076c4672d0"><path rx="0" ry="0" d="M61.324,91.059C64.000,92.608,65.227,99.203,65.227,99.203C65.227,99.203,60.712,99.467,58.325,98.781C55.938,98.095,54.557,95.601,55.242,93.214C55.928,90.826,59.174,89.815,61.324,91.059Z" style="fill: rgb(90, 162, 196); fill-opacity: 1;"/></g></g></g></g><g id="shape-239fa005-02ff-80a7-8003-93348bc5c4a2" class="icon" rx="0" ry="0" style="fill: rgb(0, 0, 0);"><g id="shape-239fa005-02ff-80a7-8003-93348bc5c4a4"><g class="fills" id="fills-239fa005-02ff-80a7-8003-93348bc5c4a4"><path rx="0" ry="0" d="M147.844,10.594L116.156,10.594C115.482,10.594,114.938,11.138,114.938,11.813L114.938,36.188C114.938,36.862,115.482,37.406,116.156,37.406L147.844,37.406C148.518,37.406,149.063,36.862,149.063,36.188L149.063,11.813C149.063,11.138,148.518,10.594,147.844,10.594ZZM146.320,34.664L117.680,34.664L117.680,33.144L122.955,26.887L128.671,33.666L137.564,23.124L146.320,33.506L146.320,34.664ZZM146.320,29.721L137.797,19.612C137.675,19.468,137.454,19.468,137.332,19.612L128.671,29.880L123.187,23.379C123.065,23.234,122.844,23.234,122.722,23.379L117.680,29.359L117.680,13.336L146.320,13.336L146.320,29.721ZZM124.078,21.867C125.929,21.867,127.430,20.367,127.430,18.516C127.430,16.665,125.929,15.164,124.078,15.164C122.227,15.164,120.727,16.665,120.727,18.516C120.727,20.367,122.227,21.867,124.078,21.867ZZM124.078,17.449C124.668,17.449,125.145,17.925,125.145,18.516C125.145,19.106,124.668,19.582,124.078,19.582C123.488,19.582,123.012,19.106,123.012,18.516C123.012,17.925,123.488,17.449,124.078,17.449ZZ" style="fill: rgb(108, 108, 108); fill-opacity: 1;"/></g></g></g></g></svg>