<svg xmlns:xlink="http://www.w3.org/1999/xlink" width="220" xmlns="http://www.w3.org/2000/svg" height="220" id="screenshot-627cfb1e-c31d-805d-8003-aed28b16dcec" viewBox="0 0 220 220" style="-webkit-print-color-adjust: exact;" fill="none" version="1.1"><g id="shape-627cfb1e-c31d-805d-8003-aed28b16dcec" rx="0" ry="0"><g id="shape-627cfb1e-c31d-805d-8003-aed2484c8055"><g class="fills" id="fills-627cfb1e-c31d-805d-8003-aed2484c8055"><ellipse rx="109.99999999999997" ry="110" cx="110.00000000000003" cy="110" transform="matrix(1.000000, 0.000000, 0.000000, 1.000000, 0.000000, 0.000000)" style="fill: rgb(255, 255, 255); fill-opacity: 1;"/></g></g><g id="shape-194cb589-396c-806b-8003-91fc280091fc" class="icon" rx="0" ry="0" style="fill: rgb(0, 0, 0);"><g id="shape-194cb589-396c-806b-8003-91fc280125cc"><g class="fills" id="fills-194cb589-396c-806b-8003-91fc280125cc"><path rx="0" ry="0" d="M146.438,83.172L132.359,83.172L129.005,73.773C128.531,72.455,127.280,71.577,125.879,71.578L94.121,71.578C92.723,71.578,91.471,72.458,91.005,73.773L87.641,83.172L73.563,83.172C68.987,83.172,65.281,86.878,65.281,91.453L65.281,138.656C65.281,143.232,68.987,146.938,73.563,146.938L146.438,146.938C151.013,146.938,154.719,143.232,154.719,138.656L154.719,91.453C154.719,86.878,151.013,83.172,146.438,83.172ZZM147.266,138.656C147.266,139.112,146.893,139.484,146.438,139.484L73.563,139.484C73.107,139.484,72.734,139.112,72.734,138.656L72.734,91.453C72.734,90.998,73.107,90.625,73.563,90.625L92.889,90.625L94.659,85.677L97.029,79.031L122.960,79.031L125.331,85.677L127.101,90.625L146.438,90.625C146.893,90.625,147.266,90.998,147.266,91.453L147.266,138.656ZZM110.000,97.250C100.849,97.250,93.438,104.662,93.438,113.813C93.438,122.963,100.849,130.375,110.000,130.375C119.151,130.375,126.563,122.963,126.563,113.813C126.563,104.662,119.151,97.250,110.000,97.250ZZM110.000,123.750C104.514,123.750,100.063,119.299,100.063,113.813C100.063,108.326,104.514,103.875,110.000,103.875C115.486,103.875,119.938,108.326,119.938,113.813C119.938,119.299,115.486,123.750,110.000,123.750ZZ" style="fill: rgb(108, 108, 108); fill-opacity: 1;"/></g></g></g></g></svg>